<?xml version="1.0" standalone="no"?>
<!DOCTYPE svg PUBLIC "-//W3C//DTD SVG 20010904//EN"
 "http://www.w3.org/TR/2001/REC-SVG-20010904/DTD/svg10.dtd">
<svg version="1.0" xmlns="http://www.w3.org/2000/svg"
 width="367.000000pt" height="135.000000pt" viewBox="0 0 367.000000 135.000000"
 preserveAspectRatio="xMidYMid meet">

<g transform="translate(0.000000,135.000000) scale(0.100000,-0.100000)"
fill="#000000" stroke="none">
<path d="M1462 943 c-63 -88 -53 -231 25 -388 32 -63 145 -229 185 -272 l30
-31 48 14 c131 39 347 143 389 188 l23 24 -25 38 c-34 55 -49 106 -56 193 l-6
76 -35 -1 c-46 0 -140 -11 -166 -19 -16 -5 -29 2 -55 32 -37 43 -136 103 -169
103 -12 0 -34 7 -51 15 -31 16 -59 17 -71 1 -3 -5 -15 5 -26 23 l-20 32 -20
-28z"/>
<path d="M2192 870 c42 -25 78 -110 59 -139 -8 -12 -12 -12 -24 -2 -9 7 -28
14 -44 15 -23 3 -29 9 -33 37 l-6 34 -7 -34 c-18 -85 -3 -183 39 -246 15 -23
18 -24 34 -10 25 23 72 123 78 167 3 23 -2 55 -12 82 -17 44 -70 106 -90 106
-6 0 -3 -5 6 -10z"/>
<path d="M1850 805 c0 -20 17 -28 23 -11 3 8 -1 17 -9 20 -8 3 -14 -1 -14 -9z"/>
</g>
</svg>
